<?xml version="1.0" encoding="UTF-8"?>
<svg id="_레이어_1" data-name="레이어 1" xmlns="http://www.w3.org/2000/svg" viewBox="0 0 28 22">
  <defs>
    <style>
      .cls-1 {
        fill: #8261ec;
        stroke-width: 0px;
      }
    </style>
  </defs>
  <path class="cls-1" d="m23.58,1.83c-2.36-1.41-5.69-1.83-5.69-1.83l-.69,1.83c-1.39-.56-3.19-.42-3.19-.42,0,0-1.8-.14-3.19.42l-.69-1.83s-3.33.42-5.69,1.83C4.42,1.83-.85,7.47.12,18.47c0,0,3.19,2.4,6.94,3.53l1.67-2.54-2.36-1.13.42-.42s3.61,1.68,7.22,1.68,7.22-1.68,7.22-1.68l.42.42-2.36,1.13,1.67,2.54c3.75-1.13,6.94-3.53,6.94-3.53.97-11-4.3-16.64-4.3-16.64Zm-14.3,13.12c-1.46,0-2.64-1.2-2.64-2.68s1.18-2.68,2.64-2.68,2.64,1.2,2.64,2.68-1.18,2.68-2.64,2.68Zm9.44,0c-1.46,0-2.64-1.2-2.64-2.68s1.18-2.68,2.64-2.68,2.64,1.2,2.64,2.68-1.18,2.68-2.64,2.68Z"/>
</svg>