<?xml version="1.0" encoding="UTF-8"?>
<svg id="_레이어_1" data-name="레이어 1" xmlns="http://www.w3.org/2000/svg" viewBox="0 0 32 32">
  <defs>
    <style>
      .cls-1 {
        fill: #ecebfb;
      }

      .cls-1, .cls-2 {
        stroke-width: 0px;
      }

      .cls-2 {
        fill: #131415;
      }
    </style>
  </defs>
  <rect class="cls-2" width="32" height="32"/>
  <path class="cls-1" d="m28.89,15.08c-.6-.6-1.08-.4-1.29-.25-.13.09-.27.18-.42.26-.72.36-2.66,1.18-5.45,1.18-1.87,0-3.12-.6-3.88-1.18-.47-.41,0-.97,0-.97h0c1.04-1.28,1.67-2.92,1.67-4.71,0-4.09-3.29-7.41-7.35-7.41-3,0-5.59,1.82-6.72,4.43,0,0,0,0,0,0-.12.32-.51.31-.51.31h-2.09s-.86-.03-.86,1.32.25,2.55,2.98,4.13h0s.59.48.83.9c.43.72-.31,1.23-.31,1.23h0c-.1.06-.19.13-.28.2-1.16.94-2.83,2.96-2.83,6.8,0,5.86,6.85,8.67,14.16,8.67s11.12-3.19,12.66-7.56.48-6.55-.32-7.36Z"/>
</svg>