<?xml version="1.0" encoding="UTF-8"?>
<svg id="_레이어_1" data-name="레이어 1" xmlns="http://www.w3.org/2000/svg" viewBox="0 0 60 60">
  <defs>
    <style>
      .cls-1 {
        fill: #ecebfb;
        stroke-width: 0px;
      }
    </style>
  </defs>
  <path class="cls-1" d="m57.63,28.03c-1.28-1.3-2.32-.85-2.77-.54-.29.2-.58.39-.89.55-1.54.78-5.7,2.54-11.67,2.54-4.01,0-6.68-1.29-8.31-2.52-1-.88,0-2.07,0-2.07h0c2.24-2.74,3.58-6.26,3.58-10.09,0-8.77-7.05-15.89-15.75-15.89-6.44,0-11.97,3.9-14.41,9.49,0,0,0,.01-.01.02-.25.68-1.09.67-1.09.67H1.84s-1.84-.06-1.84,2.83.53,5.47,6.39,8.85h0s1.25,1.03,1.79,1.93c.92,1.55-.67,2.64-.67,2.64h0c-.21.13-.41.27-.6.43-2.48,2.01-6.07,6.34-6.07,14.57,0,12.55,14.67,18.59,30.34,18.59s23.83-6.83,27.13-16.2c3.31-9.37,1.03-14.04-.68-15.77Z"/>
</svg>