<?xml version="1.0" encoding="UTF-8"?>
<svg id="_레이어_1" data-name="레이어 1" xmlns="http://www.w3.org/2000/svg" viewBox="0 0 36 36">
  <defs>
    <style>
      .cls-1 {
        fill: #ecebfb;
        stroke-width: 0px;
      }
    </style>
  </defs>
  <path class="cls-1" d="m34.58,16.82c-.77-.78-1.39-.51-1.66-.33-.17.12-.35.23-.53.33-.93.47-3.42,1.52-7,1.52-2.4,0-4.01-.77-4.99-1.51-.6-.53,0-1.24,0-1.24h0c1.34-1.65,2.15-3.75,2.15-6.05C22.55,4.27,18.32,0,13.1,0c-3.86,0-7.18,2.34-8.65,5.69,0,0,0,0,0,.01-.15.41-.66.4-.66.4H1.1s-1.1-.03-1.1,1.7.32,3.28,3.83,5.31h0s.75.62,1.07,1.16c.55.93-.4,1.58-.4,1.58h0c-.12.08-.24.16-.36.26-1.49,1.21-3.64,3.81-3.64,8.74,0,7.53,8.8,11.15,18.2,11.15s14.3-4.1,16.28-9.72c1.98-5.62.62-8.42-.41-9.46Z"/>
</svg>