<?xml version="1.0" encoding="UTF-8"?>
<svg id="_레이어_1" data-name="레이어 1" xmlns="http://www.w3.org/2000/svg" viewBox="0 0 32 32">
  <defs>
    <style>
      .cls-1 {
        fill: #ecebfb;
        stroke-width: 0px;
      }
    </style>
  </defs>
  <path class="cls-1" d="m30.74,14.95c-.68-.69-1.24-.45-1.47-.29-.15.11-.31.21-.47.29-.82.41-3.04,1.35-6.22,1.35-2.14,0-3.56-.69-4.43-1.35-.53-.47,0-1.1,0-1.1h0c1.19-1.46,1.91-3.34,1.91-5.38C20.04,3.79,16.28,0,11.64,0c-3.43,0-6.38,2.08-7.68,5.06,0,0,0,0,0,0-.14.37-.58.36-.58.36H.98s-.98-.03-.98,1.51.28,2.92,3.41,4.72h0s.67.55.95,1.03c.49.83-.36,1.41-.36,1.41h0c-.11.07-.22.14-.32.23-1.32,1.07-3.24,3.38-3.24,7.77,0,6.69,7.82,9.91,16.18,9.91s12.71-3.64,14.47-8.64c1.76-5,.55-7.49-.36-8.41Z"/>
</svg>