<?xml version="1.0" encoding="UTF-8"?>
<svg id="_레이어_1" data-name="레이어 1" xmlns="http://www.w3.org/2000/svg" viewBox="0 0 98.89 110.01">
  <defs>
    <style>
      .cls-1 {
        fill: #ecebfb;
        stroke-width: 0px;
      }
    </style>
  </defs>
  <path class="cls-1" d="m21.36,59.62c.1.08.21.16.33.23.06.04.12.09.18.13,1.37.94,2.7.1,3.17-1.11,4.32-4.21,8.65-8.43,12.97-12.64,3.71-3.62,8.92-7.54,10.16-12.87,1.14-4.9-1.68-9.41-6.19-11.3-4.75-2-9.87-.36-13.62,2.91-3.05,2.65-4.9,6.17-6.27,9.9-.99-3.43-1.79-6.93-3.75-9.98-2.77-4.29-8.07-7.33-13.18-5.3C-.16,21.7-.76,27.75.66,32.61c1.5,5.14,4.43,10.1,7.62,14.36,3.68,4.9,8.06,9.14,13.08,12.65ZM5.71,24.56c3.05-2.96,7.44.5,9.04,3.24,2.75,4.7,3.02,10.41,5.61,15.23.95,1.76,3.69,1.31,4.2-.55,1.16-4.21,2.31-8.75,5.09-12.24,2.24-2.81,5.94-5.29,9.68-4.28,3.33.9,5.49,4.01,4.03,7.37-.86,1.99-2.44,3.61-3.95,5.12-1.81,1.81-3.67,3.58-5.5,5.36-3.78,3.68-7.55,7.36-11.33,11.04-6.81-5.06-12.28-11.79-15.91-19.47-1.33-2.82-3.75-8.12-.96-10.82Z"/>
  <path class="cls-1" d="m98.14,24.71c-2.02-4.86-6.94-7.3-12.06-7.11-3.44.13-6.54,1.31-9.43,2.97.88-2.52,1.54-5.12,1.97-7.76.66-4.07.9-9.46-3.22-11.87-4.51-2.63-9.38.67-11.71,4.56-2.61,4.35-4.23,9.61-5.34,14.53-1.29,5.72-1.76,11.64-1.41,17.49.05.9.52,1.52,1.15,1.85.38.48.97.82,1.75.84,5.97.13,11.95-.04,17.91-.52,5.23-.43,11.27-.52,16.02-2.99,4.44-2.3,6.29-7.37,4.38-11.99Zm-21.69,10.47c-4.99.38-9.99.52-15,.46-.15-4.81.27-9.6,1.31-14.31.55-2.46,1.24-4.89,2.1-7.26.87-2.43,1.86-5.16,3.43-7.24,1.03-1.36,3.38-3.16,5.07-1.72,1.3,1.11,1.17,3.46,1.02,5-.55,5.57-2.5,11.05-5.18,15.92-1.03,1.87,1.34,4.5,3.22,3.06,3.43-2.65,7.02-5.52,11.32-6.56,3.58-.87,7.95-.23,9.86,3.26,4.87,8.93-12.59,9.04-17.14,9.39Z"/>
  <path class="cls-1" d="m77.47,79.61c-5.02-2.36-11.1.18-15.47,2.8-2.58,1.54-4.9,3.4-6.96,5.52.38-2.3.56-4.62.16-6.94-.75-4.38-3.93-8.87-8.4-9.98-4.91-1.22-9.06,2.35-10.39,6.89-1.42,4.83-.81,10.22.35,15.05,1.4,5.85,3.95,11.32,7.51,16.16.62.85,1.48,1.03,2.24.81.33.11.68.14,1.02.04,5.94-1.67,11.71-3.83,17.23-6.6,2.72-1.37,5.37-2.87,7.95-4.49,2.56-1.6,5.18-3.29,7.04-5.71,3.32-4.32,3.11-11.02-2.28-13.54Zm-2.36,11.87c-1.73,1.68-3.89,2.96-5.94,4.21-2.11,1.29-4.29,2.48-6.5,3.58-4.96,2.47-10.15,4.51-15.48,6.03-4.45-6.42-7.36-14.58-6.99-22.42.13-2.82,1.04-7.61,4.74-7.55,3.05.05,5.25,3.73,5.71,6.37.88,5.09-1.49,10.38-1.92,15.43-.23,2.71,3.28,3.31,4.43,1.07,2.07-4.03,5.1-7.53,8.73-10.23,3.28-2.45,7.74-5.02,11.99-4.6,1.76.18,3.36,1.11,3.53,3.03.17,1.97-.94,3.75-2.3,5.08Z"/>
</svg>