<?xml version="1.0" encoding="UTF-8"?>
<svg id="_레이어_1" data-name="레이어 1" xmlns="http://www.w3.org/2000/svg" viewBox="0 0 91.07 133.64">
  <defs>
    <style>
      .cls-1 {
        fill: #ecebfb;
        stroke-width: 0px;
      }
    </style>
  </defs>
  <path class="cls-1" d="m23.69,45.84c2.31-.08,4.22-1.56,5.27-3.55.63-1.2.88-3.41,2.12-4.14,1.74-1.03,4.56.34,6.31.82,2.05.56,4.28.94,6.39.42,4.4-1.08,6.41-5.64,5.6-9.85-.79-4.11-4.07-6.99-7.37-9.34-4.92-4.96-12.49-6.7-19.35-3.38-8.17,3.96-11.44,13.8-7.89,22,1.53,3.54,4.74,7.16,8.93,7.02Z"/>
  <path class="cls-1" d="m63.25,81.33c4.22,1.36,7.54-1.46,8.28-5.52.18-.96.11-3.37.92-4.01.99-.78,2.93.9,3.64,1.5,3.26,2.72,7.29,5.58,11.49,2.74,4.28-2.91,4.2-8.48,2.03-12.66-.31-.6-.67-1.19-1.04-1.77-.09-.18-.21-.36-.35-.53-.97-1.39-2.09-2.69-3.33-3.86-1.98-2.13-4.17-4.08-6.72-5.42-3.9-2.05-8.45-2.44-12.62-.97-8.58,3.02-13.53,12.25-10.6,21.01,1.31,3.92,4.18,8.17,8.31,9.49Z"/>
  <path class="cls-1" d="m44.12,12.73c-2.55,1.43-5.96.22-6.68-2.72-.18-.73-.17-1.46-.02-2.15-.14-.85.14-1.74.78-2.48,1.86-2.19,5.68-1.9,7.45.24,1.95,2.37,1.06,5.66-1.53,7.11Z"/>
  <path class="cls-1" d="m24.43,6.62c-.47,1.59-1.89,2.82-3.5,3.17-1.66.36-3.4-.33-4.5-1.58C14.09,5.58,15.03.72,18.82.06c1.72-.3,3.41.57,4.22,2.11,1.32,1.05,1.88,2.81,1.39,4.45Z"/>
  <path class="cls-1" d="m7.06,21.77c-1.42,1.71-4.21,1.96-5.82.36-1.44-1.44-1.61-3.73-.59-5.46.54-.92,1.48-1.7,2.54-1.94.84-.19,1.76-.17,2.52.28.04.02.08.05.11.07.44.13.86.36,1.24.7,1.82,1.6,1.4,4.31,0,5.99Z"/>
  <path class="cls-1" d="m82.39,48.12c1.32-.2,2.45-.98,3.21-2.06,1.04-1.47.46-3.31-.78-4.45-.81-.74-1.9-1.2-3.02-1.31-.49-.33-1.07-.54-1.67-.56-2.04-.07-3.26,1.75-3.27,3.62-.02,2.98,2.62,5.19,5.52,4.75Zm-.72-2.27s0,0,.01-.01c.02,0,.02,0-.01.01Z"/>
  <path class="cls-1" d="m65.05,45.63c-2.31-.01-4.03-2.03-3.98-4.27.04-1.86,1.24-3.64,2.96-4.23.6-.24,1.26-.34,1.94-.23.68.1,1.25.36,1.79.78.14.11.26.19.38.32.03.03.74,1.03.31.4-.27-.39-.15-.21-.07-.13.19.18.38.47.52.69.58.94.65,2.1.42,3.16-.43,1.93-2.26,3.52-4.26,3.51Z"/>
  <path class="cls-1" d="m52.88,57.67c-1.71.81-3.75.45-5.06-.91-1.38-1.43-1.3-3.8.07-5.2.54-.56,1.2-.93,1.91-1.1.24-.24.5-.46.8-.64,1.12-.68,2.45-.3,3.37.49.34.3.69.59,1.03.89.77.67.9,1.81.69,2.74-.35,1.56-1.32,3.03-2.8,3.73Z"/>
  <path class="cls-1" d="m42.79,133.21c3.87,1.39,8.21-.62,9.1-4.74.37-1.72.14-3.4.11-5.13,0-.5-.04-1.03.11-1.51.12-.39-.02-.18.3-.17,1.85.05,3.81,2.23,5.24,3.22,1.9,1.31,3.99,2.33,6.31,2.57,3.99.41,7.55-1.62,7.77-5.81.14-2.66-.57-6.26-2.34-8.49-3.53-7.06-11.69-11.24-19.74-9.38-8.27,1.91-14.09,9.7-13.56,18.19.28,4.4,2.18,9.63,6.7,11.24Z"/>
  <path class="cls-1" d="m57.96,99.43c-.12-.04-.25-.07-.37-.11-3.48-1-1.93-6.39,1.55-5.4.12.04.25.07.37.11,3.48,1,1.93,6.39-1.55,5.4Z"/>
  <path class="cls-1" d="m43.45,91.74c3.16-1.75,5.88,3.16,2.72,4.91s-5.88-3.16-2.72-4.91Z"/>
  <path class="cls-1" d="m34.87,107.46l-.27.15c-3.16,1.75-5.88-3.16-2.72-4.91l.27-.15c3.16-1.75,5.88,3.16,2.72,4.91Z"/>
</svg>