<?xml version="1.0" encoding="UTF-8"?>
<svg id="_레이어_1" data-name="레이어 1" xmlns="http://www.w3.org/2000/svg" viewBox="0 0 120.79 135.54">
  <defs>
    <style>
      .cls-1 {
        fill: #ecebfb;
        stroke-width: 0px;
      }
    </style>
  </defs>
  <path class="cls-1" d="m46.97,57.32c4.76-1.44,7.1-6.31,6.74-11.03-.1-1.35-.42-2.62-.9-3.81,1.45.16,2.92.13,4.39-.12,5.05-.86,9.44-4.91,10.46-9.97,1.07-5.33-2.31-10.01-7.18-11.92-3.21-1.25-6.54-1.09-9.75-.22,1.75-2.79,3.06-5.82,3.05-9.17-.02-4.48-2.36-9.25-6.88-10.68-4.62-1.45-9.46,1.03-12.21,4.74-1.57,2.12-2.38,4.59-2.79,7.17-1.73-1.79-3.76-3.24-6.28-3.95-4.76-1.34-10.13.39-12.01,5.25-1.58,4.08-.22,9.08,2.96,12.01.68.63,1.41,1.16,2.18,1.62-.96.61-1.85,1.33-2.64,2.2-2.91,3.2-4.36,8.15-2.05,12.11,2.19,3.77,6.66,5.17,10.81,4.65,2.51-.31,4.75-1.43,6.78-2.89.09,3.38.9,6.69,2.97,9.45,2.76,3.67,7.85,5.9,12.36,4.54Zm10.41-31.97c2.95.69,5.6,3.08,4.73,6.33-.81,3.05-3.74,5.07-6.79,5.31-3.66.29-7.17-1.41-10.08-3.47,1.36-1.65,2.14-3.77,2.17-5.94,3.04-1.6,6.53-3.03,9.96-2.23Zm-15.68,1.18c.03.05.05.1.08.15,0,.08.02.15.03.23.3,1.69-.69,3.65-2.45,4.08-1.66.41-3.68-.72-4.11-2.41-1.03-4.11,4.69-5.66,6.45-2.06Zm3.38-20.83c2.53.72,3.32,3.94,3.07,6.24-.35,3.23-2.44,6.06-4.43,8.62-1.92-1.36-4.32-2-6.68-1.64-.02-3.09.06-6.31,1.35-9.13,1.08-2.35,3.89-4.89,6.68-4.09Zm-26.34,10.14c.84-2.64,3.91-2.73,6.11-1.84,3.2,1.31,5.18,4.69,6.93,7.48.05.09.12.16.18.24-.56.64-1.04,1.35-1.42,2.12-.28-.05-.57-.06-.89-.02-4.57.52-12.95-1.59-10.92-7.98Zm.23,23.09c-1.34-2.16.26-5.01,1.98-6.42,2.42-1.99,5.74-2.56,8.8-3.05.05.24.1.49.17.73.53,1.8,1.64,3.34,3.08,4.46-2.21,2.23-4.59,4.75-7.64,5.75-2.02.66-5.13.56-6.39-1.47Zm19.52,9.6c-1.96-3.57-1.37-7.99-.64-11.81,0-.03,0-.07.01-.1.94.09,1.91.03,2.85-.21.09-.02.18-.05.27-.07.11.65.45,1.27,1.09,1.78,2.59,2.01,5.35,4.55,5.99,7.92.46,2.38-.4,5.57-3.13,6.05-2.59.45-5.26-1.36-6.46-3.55Z"/>
  <path class="cls-1" d="m102.42,79.11c-4.75-1.5-9.41,1.22-11.77,5.32-.68,1.18-1.13,2.4-1.4,3.66-1.11-.94-2.34-1.75-3.7-2.38-4.66-2.14-10.57-1.26-14.26,2.35-3.89,3.81-3.73,9.57-.77,13.89,1.95,2.84,4.79,4.59,7.93,5.66-3.01,1.32-5.81,3.09-7.68,5.86-2.5,3.72-3.26,8.98-.32,12.7,3,3.8,8.4,4.47,12.76,2.95,2.49-.87,4.55-2.46,6.34-4.35.42,2.46,1.28,4.8,2.96,6.8,3.19,3.78,8.59,5.38,12.88,2.42,3.6-2.49,5.3-7.38,4.32-11.59-.21-.9-.51-1.75-.89-2.56,1.13.03,2.28-.06,3.42-.34,4.2-1.01,8.19-4.29,8.51-8.86.31-4.35-2.6-8.02-6.32-9.93-2.25-1.16-4.73-1.49-7.23-1.43,1.82-2.84,3.02-6.03,2.86-9.49-.21-4.59-3.17-9.29-7.66-10.71Zm-26.6,20.57c-2.05-2.23-2.89-5.7-.35-7.89,2.39-2.06,5.94-2.09,8.6-.57,3.19,1.82,5.13,5.2,6.38,8.54-2.05.6-3.89,1.91-5.14,3.69-3.41-.39-7.1-1.17-9.49-3.76Zm13.63,7.85c0-.06.01-.11.02-.17.04-.07.07-.14.11-.21.71-1.57,2.63-2.63,4.32-2,1.6.6,2.64,2.67,2.04,4.3-1.46,3.97-7.06,2.04-6.48-1.93Zm-14.52,15.31c-1.69-2.02-.53-5.12.97-6.89,2.11-2.47,5.43-3.64,8.51-4.63.82,2.2,2.44,4.09,4.6,5.11-1.72,2.57-3.6,5.19-6.26,6.78-2.21,1.33-5.96,1.86-7.82-.38Zm27.48,6.44c-2.18,1.71-4.77.06-6.09-1.92-1.91-2.88-1.65-6.79-1.52-10.08,0-.1,0-.2-.01-.3.83-.21,1.62-.53,2.36-.95.2.19.44.37.72.52,4.07,2.14,9.81,8.6,4.54,12.74Zm12.81-19.21c-.11,2.54-3.03,3.99-5.25,4.19-3.12.28-6.19-1.11-8.99-2.43.1-.23.19-.46.27-.7.58-1.78.52-3.68-.03-5.42,3.08-.6,6.47-1.34,9.55-.45,2.04.59,4.56,2.43,4.46,4.81Zm-10.74-18.92c-.39,4.05-3.36,7.37-6.12,10.12-.02.02-.05.05-.07.08-.73-.61-1.56-1.1-2.47-1.44-.09-.03-.18-.06-.27-.09.27-.59.35-1.31.1-2.08-1.01-3.12-1.86-6.78-.5-9.92.97-2.23,3.47-4.38,5.99-3.24,2.39,1.08,3.58,4.08,3.34,6.57Z"/>
  <path class="cls-1" d="m56.94,92.23c-.46-4.95-4.77-8.21-9.47-8.79-1.35-.17-2.65-.11-3.92.13.44-1.39.71-2.83.76-4.33.16-5.12-2.94-10.23-7.7-12.23-5.02-2.11-10.27.28-13.1,4.68-1.87,2.9-2.37,6.2-2.14,9.51-2.39-2.27-5.1-4.15-8.38-4.8-4.4-.87-9.54.48-11.83,4.63-2.34,4.24-.86,9.48,2.23,12.91,1.77,1.96,4.03,3.24,6.47,4.15-2.1,1.34-3.92,3.04-5.11,5.37-2.25,4.4-1.63,10.01,2.77,12.81,3.69,2.36,8.86,2.02,12.36-.52.75-.54,1.42-1.15,2.02-1.81.41,1.06.94,2.07,1.64,3.02,2.56,3.48,7.13,5.89,11.47,4.41,4.13-1.4,6.38-5.51,6.7-9.67.19-2.52-.46-4.94-1.49-7.21,3.33.58,6.73.45,9.85-1.04,4.14-1.98,7.33-6.53,6.9-11.22Zm-29.28-16.54c1.26-2.76,4.13-4.88,7.14-3.39,2.82,1.4,4.23,4.67,3.87,7.7-.44,3.65-2.8,6.74-5.4,9.19-1.35-1.65-3.27-2.84-5.39-3.31-.96-3.3-1.68-7-.21-10.2Zm-1.95,15.6c.06-.01.11-.03.16-.05.08,0,.15.02.24.02,1.72.04,3.44,1.4,3.52,3.21.07,1.71-1.44,3.47-3.18,3.55-4.23.19-4.62-5.71-.74-6.72Zm-19.74-7.44c1.21-2.34,4.52-2.48,6.72-1.78,3.09.99,5.46,3.6,7.57,6.05-1.72,1.61-2.82,3.84-2.93,6.22-3.03-.59-6.18-1.31-8.68-3.13-2.09-1.52-4.02-4.78-2.69-7.36Zm4.73,27.83c-2.42-1.34-1.9-4.38-.59-6.36,1.91-2.88,5.62-4.15,8.7-5.31.1-.04.18-.08.28-.13.51.68,1.12,1.29,1.79,1.81-.1.26-.17.55-.2.86-.4,4.58-4.13,12.38-9.98,9.12Zm22.68,4.35c-2.39.89-4.86-1.24-5.9-3.21-1.47-2.76-1.37-6.13-1.25-9.23.25,0,.5,0,.75-.03,1.87-.16,3.6-.95,4.98-2.14,1.75,2.61,3.74,5.44,4.12,8.63.25,2.11-.47,5.14-2.7,5.97Zm13.27-17.24c-3.89,1.21-8.1-.24-11.7-1.71-.03-.01-.06-.02-.1-.03.27-.91.41-1.86.36-2.84,0-.09-.01-.19-.02-.28.65.02,1.34-.19,1.96-.72,2.48-2.14,5.52-4.34,8.95-4.31,2.43.03,5.38,1.5,5.31,4.26-.07,2.62-2.38,4.88-4.76,5.63Z"/>
</svg>